Coordinates
version=1
nRows=4
nColumns=138
inDegrees=yes

Units are S.I. units (second, meters, Newtons, ...)
If the header above contains a line with 'inDegrees', this indicates whether rotational values are in degrees (yes) or radians (no).

endheader
time	pelvis_tilt	pelvis_list	pelvis_rotation	pelvis_tx	pelvis_ty	pelvis_tz	L5_S1_FE	L5_S1_LB	L5_S1_AR	L4_L5_FE	L4_L5_LB	L4_L5_AR	T12_L1_FE	T12_L1_LB	T12_L1_AR	T11_T12_FE	T11_T12_LB	T11_T12_AR	T10_T11_FE	T10_T11_LB	T10_T11_AR	T9_T10_FE	T9_T10_LB	T9_T10_AR	T8_T9_FE	T8_T9_LB	T8_T9_AR	T1_T2_FE	T1_T2_LB	T1_T2_AR	T1_head_neck_FE	T1_head_neck_LB	T1_head_neck_AR	hip_flexion_r	hip_adduction_r	hip_rotation_r	knee_angle_r	knee_angle_y_r	knee_angle_x_r	ankle_angle_r	subtalar_angle_r	mtp_angle_r	hip_flexion_l	hip_adduction_l	hip_rotation_l	knee_angle_l	knee_angle_y_l	knee_angle_x_l	ankle_angle_l	subtalar_angle_l	mtp_angle_l	skull_z	skull_y	skull_x	sternoclavicular_r2	sternoclavicular_r3	unrotscap_r3	unrotscap_r2	acromioclavicular_r2	acromioclavicular_r3	acromioclavicular_r1	unrothum_r1	unrothum_r3	unrothum_r2	elv_angle	shoulder_elv	shoulder1_r2	shoulder_rot	elbow_flexion	elbow_x	elbow_y	pro_sup	deviation	flexion	thumb_abd	thumb_flex	TCP2M_lateral	TCP2M_flex	TCP2M2_flex	MCP2_lateral	MCP2_flex	PIP_flex	DIP_flex	MCP2M_lateral	MCP2M_flex	MPIP_flex	MDIP_flex	RCP2M_lateral	RCP2M_flex	RPIP_flex	RDIP_flex	LCP2M_lateral	LCP2M_flex	LPIP_flex	LDIP_flex	sternoclavicular_r2_l	sternoclavicular_r3_l	unrotscap_r3_l	unrotscap_r2_l	acromioclavicular_r2_l	acromioclavicular_r3_l	acromioclavicular_r1_l	unrothum_r1_l	unrothum_r3_l	unrothum_r2_l	elv_angle_l	shoulder_elv_l	shoulder1_r2_l	shoulder_rot_l	elbow_flexion_l	elbow_x_l	elbow_y_l	pro_sup_l	deviation_l	flexion_l	thumb_l_abd	thumb_l_flex	TCP2M_l_lateral	TCP2M_l_flex	TCP2M2_l_flex	MCP2_l_lateral	MCP2_l_flex	PIP_l_flex	DIP_l_flex	MCP2M_l_lateral	MCP2M_l_flex	MPIP_l_flex	MDIP_l_flex	RCP2M_l_lateral	RCP2M_l_flex	RPIP_l_flex	RDIP_l_flex	LCP2M_l_lateral	LCP2M_l_flex	LPIP_l_flex	LDIP_l_flex	ribs_bending
      1.15000000	     -8.57314058	     87.49889244	    -68.48637490	      0.20541123	     -0.07942730	      0.92368289	     -8.15681175	     -2.19385826	     -0.01246202	     -1.67378587	     -1.62312432	      0.64249357	     -1.09418277	     -0.46213756	      1.22909963	     -0.62468924	     -0.44493094	      1.20001738	     -0.17305945	     -0.50517376	      1.13052938	      0.90137959	     -0.57240192	      1.05464249	      1.09132439	     -0.68925786	      1.13314788	      0.58250306	     -2.31646398	      0.26293399	    -22.27613019	     -2.66719074	     -1.61029576	     14.04365792	     -6.06956535	    -15.39255514	    -32.98256118	      2.37098571	      3.55635962	      8.91972819	     -1.79986245	     -7.17068172	     31.35418211	    -13.54394442	    -12.29305310	    -65.18473276	      2.65573265	      2.03826145	     -5.32302626	     -0.54949824	     -7.57165639	      0.74395706	     -3.01446303	      1.26053404	    -11.35653012	     -6.22180080	     -4.24692358	     10.02690469	     29.28502960	     16.40771977	      7.37515711	     -7.37515711	    -16.40771977	      2.03024424	    -20.10491431	     41.43339758	     20.10491431	      8.60616736	     97.28228872	      0.91912273	      0.00000000	    -19.87522838	      6.38876703	     -2.58885114	     -5.80484018	     10.41525144	      1.78254039	    -15.34295971	      4.64799126	      5.64471155	     27.67127619	     31.59412289	      6.97720705	      4.18118515	     18.55525855	     45.74735923	     11.39548937	     13.48149843	     20.28053890	     49.39190175	     18.85096777	     -8.85303547	      7.14362643	     47.39382926	     14.46090048	    -11.41457980	     -5.42924273	     -4.46152284	     10.53356940	     16.46877000	     17.23681038	      7.74782764	     -7.74782764	    -17.23681038	      2.13283353	    -27.90133007	     43.52704870	     29.08240143	      9.09866447	    101.61340270	     -0.73410686	      0.00000000	     -9.47325854	      1.40577975	      5.01383224	     -5.45279478	      7.26659770	      0.36619765	    -12.84925591	     10.32566517	      8.79307043	     27.04663698	     34.95336029	     13.85465933	      8.41104311	     21.14684821	     41.23579501	     14.66691298	     20.43884068	     19.52726523	     54.05757728	     11.81398521	     -6.15399060	      2.36236229	     51.67878597	     16.20715643	      2.31945405
      1.15830000	     -8.38686601	     86.96338760	    -68.24155928	      0.20487070	     -0.07920271	      0.91798203	     -9.02735356	     -1.95505352	      0.06688551	     -1.92655355	     -1.42006319	      0.66848083	     -0.88433889	     -0.38384209	      1.19317634	     -0.45941303	     -0.39327554	      1.16558597	      0.00511890	     -0.46699590	      1.09410611	      0.93725335	     -0.54619531	      1.02202387	      1.07704063	     -0.66838677	      1.09944998	      0.44865740	     -2.36024990	      0.25955810	    -21.74320405	     -2.80029890	     -1.63435318	     13.96632452	     -6.17340325	    -15.32063618	    -34.45209933	      2.57280342	      3.90786225	     11.82532794	     -1.30433318	     -6.98658859	     32.36771537	    -13.51817988	    -11.98288122	    -67.53540811	      2.24491785	      1.60704992	     -4.16536209	     -1.07727001	     -7.52889316	      0.89854049	     -3.07094145	      1.14148063	    -11.36996862	     -6.45655323	     -4.27963355	     10.10413230	     28.98254881	     16.53409267	      7.43196086	     -7.43196086	    -16.53409267	      2.04588126	    -20.52475344	     41.75251923	     20.52475344	      8.77007599	     96.38935004	      1.09369617	      0.00000000	    -20.03540629	      6.84894716	     -2.75375211	     -5.74846538	     10.41731649	      1.82236797	    -15.38374583	      4.63162271	      5.68573958	     27.69591599	     31.59581451	      6.97464681	      4.23098083	     18.55289352	     45.72159052	     11.38281446	     13.51009507	     20.25643909	     49.36895785	     18.84726393	     -8.85630622	      7.09692752	     47.37902678	     14.46180292	    -11.58637737	     -5.76932360	     -4.46704143	     10.54659868	     16.51520775	     17.25813111	      7.75741116	     -7.75741116	    -17.25813111	      2.13547170	    -28.02555507	     43.58088862	     29.03110809	      9.03418629	    102.32187857	     -0.72495256	      0.00000000	     -9.26970968	      1.71963339	      4.98150408	     -5.34441140	      7.32580242	      0.44511766	    -12.87407271	     10.29352258	      8.82798295	     27.06245913	     34.97819926	     13.86776010	      8.43678626	     21.13401570	     41.23369927	     14.66244270	     20.46060748	     19.50772636	     54.04505303	     11.81609604	     -6.16793737	      2.32938377	     51.65792288	     16.21435341	      2.31945405
      1.16670000	     -8.27762345	     86.66506255	    -68.08360693	      0.20426315	     -0.07932304	      0.91239071	     -9.64506875	     -1.75663599	      0.13732412	     -1.80783247	     -1.25583038	      0.68469801	     -0.67149408	     -0.33086446	      1.16272823	     -0.36166728	     -0.36050308	      1.13648078	      0.06565128	     -0.43969951	      1.06812353	      0.87244754	     -0.52325329	      1.01113976	      0.93902191	     -0.64392552	      1.09512095	      0.30178629	     -2.35240451	      0.30946861	    -21.55498685	     -2.84155353	     -1.61615845	     13.99074643	     -6.29513761	    -15.35769445	    -35.48344602	      2.72984624	      4.18487992	     13.79592034	     -1.00492603	     -6.94753405	     33.47198181	    -13.62357304	    -11.81423123	    -69.75799664	      2.11660512	      1.41249310	     -3.31178142	     -1.45212985	     -7.51879475	      0.75913506	     -3.08255999	      0.98899401	    -11.28316033	     -6.93152328	     -4.34448282	     10.25724018	     28.63738309	     16.78463371	      7.54457734	     -7.54457734	    -16.78463371	      2.07688249	    -20.92410065	     42.38519499	     20.92410065	      8.88354500	     95.45748876	      1.26519913	      0.00000000	    -20.04036863	      7.13655319	     -2.98821577	     -5.70485919	     10.42864151	      1.86110655	    -15.41097108	      4.61932712	      5.68614141	     27.72208113	     31.57636363	      6.95987962	      4.24500349	     18.56771767	     45.69072618	     11.36566765	     13.53318553	     20.24288334	     49.35498900	     18.84714820	     -8.87260326	      7.04062687	     47.37978531	     14.47155065	    -11.58953937	     -6.30063750	     -4.49146858	     10.60427072	     16.56271998	     17.35250386	      7.79983106	     -7.79983106	    -17.35250386	      2.14714911	    -28.19569440	     43.81920228	     28.91098603	      8.89506658	    102.98162167	     -0.80617856	      0.00000000	     -9.14204893	      1.98575244	      5.00275716	     -5.31988991	      7.31160144	      0.49014362	    -12.91142664	     10.24314505	      8.85114551	     27.05395443	     34.99845612	     13.88045603	      8.45297426	     21.13974896	     41.23868053	     14.65750421	     20.49090495	     19.51069004	     54.03455575	     11.81909839	     -6.18533827	      2.33062435	     51.65815272	     16.23351193	      2.31945405
      1.17500000	     -8.21770317	     86.30353106	    -67.99487230	      0.20380160	     -0.07928503	      0.90711267	    -10.24322780	     -1.51741880	      0.23563832	     -1.72129343	     -1.04925226	      0.72106710	     -0.53604405	     -0.26013782	      1.14080957	     -0.33018321	     -0.31773460	      1.11956188	      0.06320196	     -0.40916853	      1.05506518	      0.78074360	     -0.50416543	      1.01167021	      0.79070378	     -0.63252262	      1.10083346	      0.32768031	     -2.42607206	      0.32306093	    -21.06348379	     -2.96286270	     -1.60579331	     14.07768125	     -6.36180274	    -15.39678132	    -36.63101559	      2.85454239	      4.36816601	     15.45319798	     -0.78770183	     -6.91422947	     34.40492367	    -13.69231332	    -11.69541361	    -71.80912510	      1.87890174	      1.24685745	     -2.58998445	     -1.90013987	     -7.51226600	      0.78262791	     -3.10426622	      0.82436580	    -11.17496529	     -7.40198156	     -4.40171003	     10.39235251	     28.27454973	     17.00572740	      7.64395743	     -7.64395743	    -17.00572740	      2.10423999	    -21.31450587	     42.94350917	     21.31450587	      8.97174707	     94.55413260	      1.42009835	      0.00000000	    -19.93096269	      7.37937886	     -3.14443432	     -5.65472485	     10.45796305	      1.89902977	    -15.42967434	      4.60976186	      5.68076927	     27.76610668	     31.56388688	      6.94710102	      4.25421597	     18.59311143	     45.67038099	     11.35262807	     13.55155516	     20.23118033	     49.34525445	     18.84691310	     -8.88656199	      6.97897449	     47.37489309	     14.47781296	    -11.57816607	     -6.80012761	     -4.51567428	     10.66141990	     16.56847524	     17.44602103	      7.84186639	     -7.84186639	    -17.44602103	      2.15872066	    -28.38192179	     44.05535540	     28.80547671	      8.77436321	    103.60666278	     -0.88502058	      0.00000000	     -9.03459342	      2.28279844	      5.05392894	     -5.28851698	      7.30893885	      0.53089127	    -12.94068560	     10.20279731	      8.86786061	     27.05128101	     35.01588088	     13.89031534	      8.47072794	     21.14920113	     41.24461493	     14.65319381	     20.52258930	     19.51054130	     54.02251835	     11.81895094	     -6.19322350	      2.32905786	     51.65641827	     16.24764984	      2.31945405
